<svg width="145" height="40" viewBox="0 0 145 40" fill="none" xmlns="http://www.w3.org/2000/svg">
<path d="M28.112 0C23.6214 0 19.8941 3.25967 19.1514 7.53714C19.0001 8.12856 19.0138 11.7527 19.0069 11.7527C19.0069 12.406 19.4127 16.491 15.4997 20.3971C11.5936 24.3101 7.19921 23.6017 7.19921 23.6017V23.6155C5.52811 23.5673 3.84325 24.1588 2.57101 25.431C0.122814 27.8792 0.122814 31.8541 2.57101 34.3023C5.01921 36.7505 8.99409 36.7505 11.4423 34.3023C12.7145 33.03 13.3128 31.3452 13.2578 29.6741L13.2716 29.6672C13.2716 29.6672 12.5632 25.2728 16.4762 21.3667C20.3823 17.4537 24.3985 17.9214 25.0449 17.9214C25.0518 17.9214 27.6238 18.2102 28.1052 18.2033C33.1391 18.1758 37.2171 14.1253 37.2171 9.09134C37.2171 4.07804 33.1391 0 28.112 0Z" fill="#F74539"/>
<path d="M46.2948 31.0426C45.3458 28.3537 42.6088 26.8201 39.8924 27.274C39.5072 27.3084 37.341 28.0786 37.341 28.0786C36.949 28.2162 34.5902 29.3233 31.4268 27.8104C28.2634 26.2975 27.7545 23.5261 27.7545 23.5261H27.7476C27.4244 22.5151 26.7161 21.6349 25.6777 21.1398C23.6971 20.1907 21.3177 21.0366 20.3687 23.0172C19.4197 24.9977 20.2655 27.3772 22.2461 28.3262C23.2776 28.8144 24.4123 28.8213 25.3957 28.4362L25.4026 28.4431C25.4026 28.4431 27.8783 27.0952 31.0486 28.6013C34.212 30.1142 34.7897 32.6105 34.9203 33.0025C34.9203 33.0025 35.2986 34.6049 35.4017 34.8937C36.4814 37.8989 39.7686 39.4806 42.7807 38.4147C45.7859 37.3556 47.3607 34.0547 46.2948 31.0426Z" fill="#F74539"/>
<path d="M24.5085 35.9595C24.5085 38.1602 22.7273 39.9413 20.5267 39.9413C18.3261 39.9413 16.545 38.1602 16.545 35.9595C16.545 33.7589 18.3261 31.9778 20.5267 31.9778C22.7273 31.9778 24.5085 33.7589 24.5085 35.9595Z" fill="#F74539"/>
<path d="M62.0039 29V11.9102H64.7383V19.0635H66.3496V21.7246H64.7383V29H62.0039ZM67.6436 21.7246V19.0635H69.2549V11.9102H71.9893V29H69.2549V21.7246H67.6436ZM76.4912 29V11.9102H79.2256V29H76.4912Z" fill="#111111"/>
<path d="M91.501 14.5713V11.9102H102.072V14.5713H98.166V29H95.4316V14.5713H91.501ZM105.988 29V11.9102H114.875V14.5957H108.723V19.1367H112.58V21.8711H108.723V26.29H114.875V29H105.988ZM119.279 24.5811C119.279 25.5251 119.629 26.4447 120.329 27.3398C121.273 28.5117 122.535 29.1058 124.113 29.1221V26.4121C123.153 26.4121 122.494 25.9889 122.136 25.1426C122.038 24.9147 121.989 24.7275 121.989 24.5811V16.3535C121.989 15.9141 122.193 15.4909 122.6 15.084C123.023 14.7096 123.527 14.5143 124.113 14.498V11.7881C122.274 11.7881 120.891 12.5693 119.963 14.1318C119.507 14.8968 119.279 15.6374 119.279 16.3535V24.5811ZM125.358 29.1221C126.644 29.1221 127.759 28.6175 128.703 27.6084C129.517 26.7132 129.924 25.696 129.924 24.5566L127.287 23.9219C127.287 24.1009 127.279 24.2148 127.263 24.2637C127.263 24.6055 127.222 24.8984 127.141 25.1426C127.01 25.4681 126.799 25.7367 126.506 25.9482C126.213 26.1598 125.944 26.29 125.7 26.3389L125.358 26.4121V29.1221ZM125.358 14.498C125.358 14.498 125.57 14.5632 125.993 14.6934C126.547 14.9701 126.929 15.3688 127.141 15.8896C127.222 16.1338 127.263 16.4105 127.263 16.7197V17.0859L129.924 16.4023C129.924 15.1491 129.403 14.0342 128.361 13.0576C127.434 12.2113 126.433 11.7881 125.358 11.7881V14.498ZM134.011 29V11.9102H136.745V19.0635H138.356V21.7246H136.745V29H134.011ZM139.65 21.7246V19.0635H141.262V11.9102H143.996V29H141.262V21.7246H139.65Z" fill="#F74539"/>
</svg>
